<svg width="100" height="100"  xmlns="http://www.w3.org/2000/svg" viewBox="0 0 175.19 100" style="overflow:visible" class="landing-devices__icon--airplay"><rect x="0" y="-15" width="175.19" height="120" fill-opacity="0"></rect><g><path d="M145.148-13.681H30.095C21.242-13.681 16.084-8.489 16.084.317V64.815C16.084 73.62 21.242 78.859 30.094 78.859H145.149C153.953 78.86 159.112 73.62 159.112 64.815V.317C159.112-8.49 153.953-13.681 145.148-13.681ZM22.71 64.654V.478C22.71-4.322 25.489-7.055 30.302-7.055H144.94C149.707-7.055 152.532-4.323 152.532.478V64.654C152.532 69.501 149.707 72.2 144.94 72.2H30.302C25.49 72.2 22.71 69.5 22.71 64.654Z" fill="#000" fill-opacity="1"></path><path d="M22.71 64.654V.478C22.71-4.322 25.489-7.055 30.302-7.055H144.94C149.707-7.055 152.532-4.323 152.532.478V64.654C152.532 69.501 149.707 72.2 144.94 72.2H30.302C25.49 72.2 22.71 69.5 22.71 64.654Z" fill="#fff" fill-opacity="1"></path><path d="M126.176 109.84C133.963 109.84 137.816 100.832 132.674 95.052L94.635 51.981C90.917 47.806 84.312 47.806 80.594 51.98L42.555 95.052C37.413 100.832 41.3 109.84 49.134 109.84Z" fill="#fff" fill-opacity="1"></path><path d="M126.176 103.142C128.224 103.142 128.984 100.946 127.687 99.422L89.649 56.397C88.555 55.189 86.675 55.189 85.614 56.397L47.575 99.422C46.28 100.946 47.005 103.142 49.134 103.142Z" fill="#000" fill-opacity="1"></path></g></svg>