<svg width="100" height="100" xmlns="http://www.w3.org/2000/svg" viewBox="0 0 147.86 100" style="overflow:visible" class="landing-devices__icon--web"><rect x="0" y="-15" width="147.86" height="120" fill-opacity="0"></rect><g><path d="M73.914 107.386C108.257 107.386 136.604 79.074 136.604 44.73 136.603 10.387 108.223-17.925 73.88-17.925 39.524-17.925 11.259 10.387 11.259 44.73 11.26 79.074 39.558 107.386 73.914 107.386ZM73.914 100.49C43.086 100.49 18.174 75.592 18.174 44.73S43.053-11.03 73.882-11.03C104.742-11.03 129.674 13.868 129.674 44.73S104.776 100.49 73.914 100.49Z" fill="#000" fill-opacity="1"></path><path d="M45.923 76.836 83.325 57.85C85.042 57.026 86.303 55.825 87.208 54.061L106.08 16.693C107.737 13.23 105.528 10.687 101.825 12.518L64.537 31.39C62.867 32.168 61.733 33.288 60.7 35.26L41.748 72.661C40.044 76.056 42.448 78.553 45.923 76.836ZM73.914 52.438A7.722 7.722 0 0 1 66.194 44.718 7.722 7.722 0 0 1 73.914 36.996 7.722 7.722 0 0 1 81.634 44.717 7.722 7.722 0 0 1 73.915 52.437Z" fill="#000" fill-opacity="1"></path></g></svg>